M48
INCH,LZ
;FILE_FORMAT=2:4
;TYPE=PLATED
;Layer: PTH_Through
;EasyEDA v6.5.1, 2022-05-17 10:42:42
;183223736e564f1bbe1f5351ff330512,a895fda7382342f89faddf0c187955a9,10
;Gerber Generator version 0.2
;Holesize 1 = 0.0120 inch
T01C0.0120
;Holesize 2 = 0.0150 inch
T02C0.0150
%
G05
G90
T01
X-009700Y017650
X-011200Y019400
X-011450Y022400
X-009650Y018800
T02
X-001128Y030200
X-003600Y030200
X001344Y030200
X003817Y030200
X006289Y030200
X008761Y030200
X011233Y030200
X013706Y030200
X016178Y030200
X018650Y030200
X-001128Y017700
X001344Y017700
X003817Y017700
X006289Y017700
X008761Y017700
X011233Y017700
X013706Y017700
X016178Y017700
X-003600Y017700
X018650Y017700
M30
