G04 Layer: TopSolderMaskLayer*
G04 EasyEDA v6.5.1, 2022-05-17 10:42:42*
G04 183223736e564f1bbe1f5351ff330512,a895fda7382342f89faddf0c187955a9,10*
G04 Gerber Generator version 0.2*
G04 Scale: 100 percent, Rotated: No, Reflected: No *
G04 Dimensions in inches *
G04 leading zeros omitted , absolute positions ,3 integer and 6 decimal *
%FSLAX36Y36*%
%MOIN*%

%ADD33C,0.0276*%

%LPD*%
G36*
X-1006600Y1510900D02*
G01*
X-1006840Y1510820D01*
X-1007000Y1510600D01*
X-1009800Y1496600D01*
X-1022200Y1499700D01*
X-1023300Y1499900D01*
X-1023800Y1499700D01*
X-1026580Y1494420D01*
X-1028199Y1491000D01*
X-1028000Y1490600D01*
X-1015900Y1485300D01*
X-1021600Y1480400D01*
X-1026120Y1476380D01*
X-1026500Y1475900D01*
X-1026400Y1475600D01*
X-1019160Y1468740D01*
X-1018700Y1468500D01*
X-1014700Y1470800D01*
X-1010200Y1473800D01*
X-1005560Y1460980D01*
X-1005200Y1460800D01*
X-1003340Y1460920D01*
X-1000200Y1461399D01*
X-996140Y1461879D01*
X-994820Y1462260D01*
X-994620Y1462460D01*
X-994700Y1463480D01*
X-995699Y1467800D01*
X-996100Y1469199D01*
X-997800Y1477400D01*
X-991200Y1474400D01*
X-984500Y1471500D01*
X-984280Y1471600D01*
X-983840Y1473180D01*
X-982480Y1481339D01*
X-982440Y1482920D01*
X-982600Y1483100D01*
X-990400Y1486300D01*
X-982300Y1491459D01*
X-982200Y1491660D01*
X-983000Y1494600D01*
X-983820Y1497220D01*
X-984599Y1500100D01*
X-985100Y1501320D01*
X-985400Y1501399D01*
X-991600Y1499100D01*
X-998800Y1496300D01*
X-996960Y1508000D01*
X-996820Y1509600D01*
X-996820Y1510580D01*
X-997020Y1510780D01*
G37*
G36*
X-921640Y1494820D02*
G01*
X-926080Y1494640D01*
X-932099Y1494620D01*
X-933900Y1494319D01*
X-934080Y1494019D01*
X-933880Y1491120D01*
X-932180Y1474319D01*
X-946940Y1480960D01*
X-950340Y1482080D01*
X-950560Y1482020D01*
X-950780Y1481620D01*
X-954300Y1468959D01*
X-953980Y1468520D01*
X-936480Y1459820D01*
X-945680Y1443120D01*
X-945680Y1442740D01*
X-945480Y1442420D01*
X-941220Y1438400D01*
X-935480Y1433320D01*
X-934980Y1433520D01*
X-923580Y1447720D01*
X-919180Y1438520D01*
X-915800Y1431819D01*
X-914880Y1430320D01*
X-914479Y1430320D01*
X-904080Y1436620D01*
X-902780Y1437520D01*
X-902280Y1438020D01*
X-902460Y1439220D01*
X-905020Y1447400D01*
X-906280Y1451120D01*
X-887680Y1452820D01*
X-887280Y1453220D01*
X-886860Y1454880D01*
X-886580Y1456620D01*
X-886440Y1458320D01*
X-885460Y1465680D01*
X-885380Y1467320D01*
X-885520Y1467720D01*
X-885780Y1467920D01*
X-890380Y1468320D01*
X-895180Y1468320D01*
X-906580Y1468920D01*
X-897140Y1480620D01*
X-894080Y1484520D01*
X-894060Y1484740D01*
X-894260Y1485040D01*
X-896960Y1486500D01*
X-900660Y1488060D01*
X-905639Y1490400D01*
X-907340Y1491060D01*
X-908420Y1491339D01*
X-908760Y1491240D01*
X-915879Y1481920D01*
X-919680Y1494420D01*
X-919900Y1494600D01*
X-920780Y1494780D01*
G37*
D33*
X-891622Y1555000D02*
G01*
X-844378Y1555000D01*
X-891622Y1605000D02*
G01*
X-844378Y1605000D01*
X-891622Y1655000D02*
G01*
X-844378Y1655000D01*
X-891622Y1705000D02*
G01*
X-844378Y1705000D01*
X-891622Y1755000D02*
G01*
X-844378Y1755000D01*
X-891622Y1805000D02*
G01*
X-844378Y1805000D01*
X-891622Y1855000D02*
G01*
X-844378Y1855000D01*
X-891622Y1905000D02*
G01*
X-844378Y1905000D01*
X-1125621Y1555000D02*
G01*
X-1078377Y1555000D01*
X-1125621Y1605000D02*
G01*
X-1078377Y1605000D01*
X-1125621Y1655000D02*
G01*
X-1078377Y1655000D01*
X-1125621Y1705000D02*
G01*
X-1078377Y1705000D01*
X-1125621Y1755000D02*
G01*
X-1078377Y1755000D01*
X-1125621Y1805000D02*
G01*
X-1078377Y1805000D01*
X-1125621Y1855000D02*
G01*
X-1078377Y1855000D01*
X-1125621Y1905000D02*
G01*
X-1078377Y1905000D01*
G36*
X-885199Y1970300D02*
G01*
X-885199Y2009699D01*
X-849699Y2009699D01*
X-849699Y1970300D01*
G37*
G36*
X-940300Y1970300D02*
G01*
X-940300Y2009699D01*
X-904800Y2009699D01*
X-904800Y1970300D01*
G37*
G36*
X-1137800Y2258200D02*
G01*
X-1137800Y2291799D01*
X-1094499Y2291799D01*
X-1094499Y2258200D01*
G37*
G36*
X-1045500Y2258200D02*
G01*
X-1045500Y2291799D01*
X-1002199Y2291799D01*
X-1002199Y2258200D01*
G37*
G36*
X-1137800Y2333200D02*
G01*
X-1137800Y2366799D01*
X-1094499Y2366799D01*
X-1094499Y2333200D01*
G37*
G36*
X-1045500Y2333200D02*
G01*
X-1045500Y2366799D01*
X-1002199Y2366799D01*
X-1002199Y2333200D01*
G37*
G36*
X-1137800Y2043200D02*
G01*
X-1137800Y2076799D01*
X-1094499Y2076799D01*
X-1094499Y2043200D01*
G37*
G36*
X-1045500Y2043200D02*
G01*
X-1045500Y2076799D01*
X-1002199Y2076799D01*
X-1002199Y2043200D01*
G37*
G36*
X-1137800Y2118200D02*
G01*
X-1137800Y2151799D01*
X-1094499Y2151799D01*
X-1094499Y2118200D01*
G37*
G36*
X-1045500Y2118200D02*
G01*
X-1045500Y2151799D01*
X-1002199Y2151799D01*
X-1002199Y2118200D01*
G37*
G36*
X-1058200Y1970999D02*
G01*
X-1058200Y2009000D01*
X-1022500Y2009000D01*
X-1022500Y1970999D01*
G37*
G36*
X-1117500Y1970999D02*
G01*
X-1117500Y2009000D01*
X-1081799Y2009000D01*
X-1081799Y1970999D01*
G37*
G36*
X-1117500Y2400999D02*
G01*
X-1117500Y2439000D01*
X-1081799Y2439000D01*
X-1081799Y2400999D01*
G37*
G36*
X-1058200Y2400999D02*
G01*
X-1058200Y2439000D01*
X-1022500Y2439000D01*
X-1022500Y2400999D01*
G37*
G36*
X-1058200Y2185999D02*
G01*
X-1058200Y2224000D01*
X-1022500Y2224000D01*
X-1022500Y2185999D01*
G37*
G36*
X-1117500Y2185999D02*
G01*
X-1117500Y2224000D01*
X-1081799Y2224000D01*
X-1081799Y2185999D01*
G37*
G36*
X1588699Y2112700D02*
G01*
X1588699Y2161300D01*
X1646899Y2161300D01*
X1646899Y2112700D01*
G37*
G36*
X1588699Y2188699D02*
G01*
X1588699Y2237300D01*
X1646899Y2237300D01*
X1646899Y2188699D01*
G37*
G36*
X-141900Y2628699D02*
G01*
X-141900Y2677300D01*
X-83699Y2677300D01*
X-83699Y2628699D01*
G37*
G36*
X-141900Y2552700D02*
G01*
X-141900Y2601300D01*
X-83699Y2601300D01*
X-83699Y2552700D01*
G37*
G36*
X1094200Y2112700D02*
G01*
X1094200Y2161300D01*
X1152399Y2161300D01*
X1152399Y2112700D01*
G37*
G36*
X1094200Y2188699D02*
G01*
X1094200Y2237300D01*
X1152399Y2237300D01*
X1152399Y2188699D01*
G37*
G36*
X352600Y2628699D02*
G01*
X352600Y2677300D01*
X410799Y2677300D01*
X410799Y2628699D01*
G37*
G36*
X352600Y2552700D02*
G01*
X352600Y2601300D01*
X410799Y2601300D01*
X410799Y2552700D01*
G37*
G36*
X599800Y2112700D02*
G01*
X599800Y2161300D01*
X658000Y2161300D01*
X658000Y2112700D01*
G37*
G36*
X599800Y2188699D02*
G01*
X599800Y2237300D01*
X658000Y2237300D01*
X658000Y2188699D01*
G37*
G36*
X846999Y2628699D02*
G01*
X846999Y2677300D01*
X905200Y2677300D01*
X905200Y2628699D01*
G37*
G36*
X846999Y2552700D02*
G01*
X846999Y2601300D01*
X905200Y2601300D01*
X905200Y2552700D01*
G37*
G36*
X105300Y2112700D02*
G01*
X105300Y2161300D01*
X163499Y2161300D01*
X163499Y2112700D01*
G37*
G36*
X105300Y2188699D02*
G01*
X105300Y2237300D01*
X163499Y2237300D01*
X163499Y2188699D01*
G37*
G36*
X1341400Y2628699D02*
G01*
X1341400Y2677300D01*
X1399600Y2677300D01*
X1399600Y2628699D01*
G37*
G36*
X1341400Y2552700D02*
G01*
X1341400Y2601300D01*
X1399600Y2601300D01*
X1399600Y2552700D01*
G37*
G36*
X-389099Y2112700D02*
G01*
X-389099Y2161300D01*
X-330900Y2161300D01*
X-330900Y2112700D01*
G37*
G36*
X-389099Y2188699D02*
G01*
X-389099Y2237300D01*
X-330900Y2237300D01*
X-330900Y2188699D01*
G37*
G36*
X1835900Y2628699D02*
G01*
X1835900Y2677300D01*
X1894099Y2677300D01*
X1894099Y2628699D01*
G37*
G36*
X1835900Y2552700D02*
G01*
X1835900Y2601300D01*
X1894099Y2601300D01*
X1894099Y2552700D01*
G37*
G36*
X1835900Y2112700D02*
G01*
X1835900Y2161300D01*
X1894099Y2161300D01*
X1894099Y2112700D01*
G37*
G36*
X1835900Y2188699D02*
G01*
X1835900Y2237300D01*
X1894099Y2237300D01*
X1894099Y2188699D01*
G37*
G36*
X-389099Y2628699D02*
G01*
X-389099Y2677300D01*
X-330900Y2677300D01*
X-330900Y2628699D01*
G37*
G36*
X-389099Y2552700D02*
G01*
X-389099Y2601300D01*
X-330900Y2601300D01*
X-330900Y2552700D01*
G37*
G36*
X1341400Y2112700D02*
G01*
X1341400Y2161300D01*
X1399600Y2161300D01*
X1399600Y2112700D01*
G37*
G36*
X1341400Y2188699D02*
G01*
X1341400Y2237300D01*
X1399600Y2237300D01*
X1399600Y2188699D01*
G37*
G36*
X105300Y2628699D02*
G01*
X105300Y2677300D01*
X163499Y2677300D01*
X163499Y2628699D01*
G37*
G36*
X105300Y2552700D02*
G01*
X105300Y2601300D01*
X163499Y2601300D01*
X163499Y2552700D01*
G37*
G36*
X846999Y2112700D02*
G01*
X846999Y2161300D01*
X905200Y2161300D01*
X905200Y2112700D01*
G37*
G36*
X846999Y2188699D02*
G01*
X846999Y2237300D01*
X905200Y2237300D01*
X905200Y2188699D01*
G37*
G36*
X599800Y2628699D02*
G01*
X599800Y2677300D01*
X658000Y2677300D01*
X658000Y2628699D01*
G37*
G36*
X599800Y2552700D02*
G01*
X599800Y2601300D01*
X658000Y2601300D01*
X658000Y2552700D01*
G37*
G36*
X352600Y2112700D02*
G01*
X352600Y2161300D01*
X410799Y2161300D01*
X410799Y2112700D01*
G37*
G36*
X352600Y2188699D02*
G01*
X352600Y2237300D01*
X410799Y2237300D01*
X410799Y2188699D01*
G37*
G36*
X1094200Y2628699D02*
G01*
X1094200Y2677300D01*
X1152399Y2677300D01*
X1152399Y2628699D01*
G37*
G36*
X1094200Y2552700D02*
G01*
X1094200Y2601300D01*
X1152399Y2601300D01*
X1152399Y2552700D01*
G37*
G36*
X-141900Y2112700D02*
G01*
X-141900Y2161300D01*
X-83699Y2161300D01*
X-83699Y2112700D01*
G37*
G36*
X-141900Y2188699D02*
G01*
X-141900Y2237300D01*
X-83699Y2237300D01*
X-83699Y2188699D01*
G37*
G36*
X1588699Y2628699D02*
G01*
X1588699Y2677300D01*
X1646899Y2677300D01*
X1646899Y2628699D01*
G37*
G36*
X1588699Y2552700D02*
G01*
X1588699Y2601300D01*
X1646899Y2601300D01*
X1646899Y2552700D01*
G37*
G36*
X1586199Y1868800D02*
G01*
X1586199Y1971199D01*
X1649399Y1971199D01*
X1649399Y1868800D01*
G37*
G36*
X1570500Y1796199D02*
G01*
X1570500Y1859400D01*
X1665100Y1859400D01*
X1665100Y1796199D01*
G37*
G36*
X1570500Y2020599D02*
G01*
X1570500Y2083800D01*
X1665100Y2083800D01*
X1665100Y2020599D01*
G37*
G36*
X-144400Y2818800D02*
G01*
X-144400Y2921199D01*
X-81199Y2921199D01*
X-81199Y2818800D01*
G37*
G36*
X-160100Y2930599D02*
G01*
X-160100Y2993800D01*
X-65500Y2993800D01*
X-65500Y2930599D01*
G37*
G36*
X-160100Y2706199D02*
G01*
X-160100Y2769400D01*
X-65500Y2769400D01*
X-65500Y2706199D01*
G37*
G36*
X1091700Y1868800D02*
G01*
X1091700Y1971199D01*
X1154899Y1971199D01*
X1154899Y1868800D01*
G37*
G36*
X1076000Y1796199D02*
G01*
X1076000Y1859400D01*
X1170600Y1859400D01*
X1170600Y1796199D01*
G37*
G36*
X1076000Y2020599D02*
G01*
X1076000Y2083800D01*
X1170600Y2083800D01*
X1170600Y2020599D01*
G37*
G36*
X350100Y2818800D02*
G01*
X350100Y2921199D01*
X413299Y2921199D01*
X413299Y2818800D01*
G37*
G36*
X334400Y2930599D02*
G01*
X334400Y2993800D01*
X429000Y2993800D01*
X429000Y2930599D01*
G37*
G36*
X334400Y2706199D02*
G01*
X334400Y2769400D01*
X429000Y2769400D01*
X429000Y2706199D01*
G37*
G36*
X597300Y1868800D02*
G01*
X597300Y1971199D01*
X660500Y1971199D01*
X660500Y1868800D01*
G37*
G36*
X581599Y1796199D02*
G01*
X581599Y1859400D01*
X676199Y1859400D01*
X676199Y1796199D01*
G37*
G36*
X581599Y2020599D02*
G01*
X581599Y2083800D01*
X676199Y2083800D01*
X676199Y2020599D01*
G37*
G36*
X844499Y2818800D02*
G01*
X844499Y2921199D01*
X907700Y2921199D01*
X907700Y2818800D01*
G37*
G36*
X828800Y2930599D02*
G01*
X828800Y2993800D01*
X923400Y2993800D01*
X923400Y2930599D01*
G37*
G36*
X828800Y2706199D02*
G01*
X828800Y2769400D01*
X923400Y2769400D01*
X923400Y2706199D01*
G37*
G36*
X102800Y1868800D02*
G01*
X102800Y1971199D01*
X165999Y1971199D01*
X165999Y1868800D01*
G37*
G36*
X87100Y1796199D02*
G01*
X87100Y1859400D01*
X181700Y1859400D01*
X181700Y1796199D01*
G37*
G36*
X87100Y2020599D02*
G01*
X87100Y2083800D01*
X181700Y2083800D01*
X181700Y2020599D01*
G37*
G36*
X1338999Y2818800D02*
G01*
X1338999Y2921199D01*
X1402200Y2921199D01*
X1402200Y2818800D01*
G37*
G36*
X1323299Y2930599D02*
G01*
X1323299Y2993800D01*
X1417899Y2993800D01*
X1417899Y2930599D01*
G37*
G36*
X1323299Y2706199D02*
G01*
X1323299Y2769400D01*
X1417899Y2769400D01*
X1417899Y2706199D01*
G37*
G36*
X-391599Y1868800D02*
G01*
X-391599Y1971199D01*
X-328400Y1971199D01*
X-328400Y1868800D01*
G37*
G36*
X-407300Y1796199D02*
G01*
X-407300Y1859400D01*
X-312699Y1859400D01*
X-312699Y1796199D01*
G37*
G36*
X-407300Y2020599D02*
G01*
X-407300Y2083800D01*
X-312699Y2083800D01*
X-312699Y2020599D01*
G37*
G36*
X1833400Y2818800D02*
G01*
X1833400Y2921199D01*
X1896599Y2921199D01*
X1896599Y2818800D01*
G37*
G36*
X1817700Y2930599D02*
G01*
X1817700Y2993800D01*
X1912299Y2993800D01*
X1912299Y2930599D01*
G37*
G36*
X1817700Y2706199D02*
G01*
X1817700Y2769400D01*
X1912299Y2769400D01*
X1912299Y2706199D01*
G37*
G36*
X1833400Y1868800D02*
G01*
X1833400Y1971199D01*
X1896599Y1971199D01*
X1896599Y1868800D01*
G37*
G36*
X1817700Y1796199D02*
G01*
X1817700Y1859400D01*
X1912299Y1859400D01*
X1912299Y1796199D01*
G37*
G36*
X1817700Y2020599D02*
G01*
X1817700Y2083800D01*
X1912299Y2083800D01*
X1912299Y2020599D01*
G37*
G36*
X-391599Y2818800D02*
G01*
X-391599Y2921199D01*
X-328400Y2921199D01*
X-328400Y2818800D01*
G37*
G36*
X-407300Y2930599D02*
G01*
X-407300Y2993800D01*
X-312699Y2993800D01*
X-312699Y2930599D01*
G37*
G36*
X-407300Y2706199D02*
G01*
X-407300Y2769400D01*
X-312699Y2769400D01*
X-312699Y2706199D01*
G37*
G36*
X1338999Y1868800D02*
G01*
X1338999Y1971199D01*
X1402200Y1971199D01*
X1402200Y1868800D01*
G37*
G36*
X1323299Y1796199D02*
G01*
X1323299Y1859400D01*
X1417899Y1859400D01*
X1417899Y1796199D01*
G37*
G36*
X1323299Y2020599D02*
G01*
X1323299Y2083800D01*
X1417899Y2083800D01*
X1417899Y2020599D01*
G37*
G36*
X102800Y2818800D02*
G01*
X102800Y2921199D01*
X165999Y2921199D01*
X165999Y2818800D01*
G37*
G36*
X87100Y2930599D02*
G01*
X87100Y2993800D01*
X181700Y2993800D01*
X181700Y2930599D01*
G37*
G36*
X87100Y2706199D02*
G01*
X87100Y2769400D01*
X181700Y2769400D01*
X181700Y2706199D01*
G37*
G36*
X844499Y1868800D02*
G01*
X844499Y1971199D01*
X907700Y1971199D01*
X907700Y1868800D01*
G37*
G36*
X828800Y1796199D02*
G01*
X828800Y1859400D01*
X923400Y1859400D01*
X923400Y1796199D01*
G37*
G36*
X828800Y2020599D02*
G01*
X828800Y2083800D01*
X923400Y2083800D01*
X923400Y2020599D01*
G37*
G36*
X597300Y2818800D02*
G01*
X597300Y2921199D01*
X660500Y2921199D01*
X660500Y2818800D01*
G37*
G36*
X581599Y2930599D02*
G01*
X581599Y2993800D01*
X676199Y2993800D01*
X676199Y2930599D01*
G37*
G36*
X581599Y2706199D02*
G01*
X581599Y2769400D01*
X676199Y2769400D01*
X676199Y2706199D01*
G37*
G36*
X350100Y1868800D02*
G01*
X350100Y1971199D01*
X413299Y1971199D01*
X413299Y1868800D01*
G37*
G36*
X334400Y1796199D02*
G01*
X334400Y1859400D01*
X429000Y1859400D01*
X429000Y1796199D01*
G37*
G36*
X334400Y2020599D02*
G01*
X334400Y2083800D01*
X429000Y2083800D01*
X429000Y2020599D01*
G37*
G36*
X1091700Y2818800D02*
G01*
X1091700Y2921199D01*
X1154899Y2921199D01*
X1154899Y2818800D01*
G37*
G36*
X1076000Y2930599D02*
G01*
X1076000Y2993800D01*
X1170600Y2993800D01*
X1170600Y2930599D01*
G37*
G36*
X1076000Y2706199D02*
G01*
X1076000Y2769400D01*
X1170600Y2769400D01*
X1170600Y2706199D01*
G37*
G36*
X-144400Y1868800D02*
G01*
X-144400Y1971199D01*
X-81199Y1971199D01*
X-81199Y1868800D01*
G37*
G36*
X-160100Y1796199D02*
G01*
X-160100Y1859400D01*
X-65500Y1859400D01*
X-65500Y1796199D01*
G37*
G36*
X-160100Y2020599D02*
G01*
X-160100Y2083800D01*
X-65500Y2083800D01*
X-65500Y2020599D01*
G37*
G36*
X1586199Y2818800D02*
G01*
X1586199Y2921199D01*
X1649399Y2921199D01*
X1649399Y2818800D01*
G37*
G36*
X1570500Y2930599D02*
G01*
X1570500Y2993800D01*
X1665100Y2993800D01*
X1665100Y2930599D01*
G37*
G36*
X1570500Y2706199D02*
G01*
X1570500Y2769400D01*
X1665100Y2769400D01*
X1665100Y2706199D01*
G37*
G36*
X-973200Y2324000D02*
G01*
X-973200Y2377199D01*
X-941599Y2377199D01*
X-941599Y2324000D01*
G37*
G36*
X-898400Y2324000D02*
G01*
X-898400Y2377199D01*
X-866799Y2377199D01*
X-866799Y2324000D01*
G37*
G36*
X-935799Y2402800D02*
G01*
X-935799Y2455999D01*
X-904200Y2455999D01*
X-904200Y2402800D01*
G37*
G36*
X-968200Y2109000D02*
G01*
X-968200Y2162199D01*
X-936599Y2162199D01*
X-936599Y2109000D01*
G37*
G36*
X-893400Y2109000D02*
G01*
X-893400Y2162199D01*
X-861799Y2162199D01*
X-861799Y2109000D01*
G37*
G36*
X-930799Y2187800D02*
G01*
X-930799Y2240999D01*
X-899200Y2240999D01*
X-899200Y2187800D01*
G37*
M02*
